<?xml version="1.0" encoding="UTF-8" standalone="no"?>
<!-- Generator: Adobe Illustrator 16.0.0, SVG Export Plug-In . SVG Version: 6.00 Build 0)  -->

<svg
   xmlns:dc="http://purl.org/dc/elements/1.1/"
   xmlns:cc="http://creativecommons.org/ns#"
   xmlns:rdf="http://www.w3.org/1999/02/22-rdf-syntax-ns#"
   xmlns:svg="http://www.w3.org/2000/svg"
   xmlns="http://www.w3.org/2000/svg"
   xmlns:sodipodi="http://sodipodi.sourceforge.net/DTD/sodipodi-0.dtd"
   xmlns:inkscape="http://www.inkscape.org/namespaces/inkscape"
   version="1.1"
   id="Layer_1"
   x="0px"
   y="0px"
   width="133.07385"
   height="124.86664"
   viewBox="0 0 133.07385 124.86664"
   enable-background="new 0 0 140 140"
   xml:space="preserve"
   inkscape:version="0.48.4 r9939"
   sodipodi:docname="mitie_logo.svg"><metadata
   id="metadata231"><rdf:RDF><cc:Work
       rdf:about=""><dc:format>image/svg+xml</dc:format><dc:type
         rdf:resource="http://purl.org/dc/dcmitype/StillImage" /><dc:title /></cc:Work></rdf:RDF></metadata><defs
   id="defs229" /><sodipodi:namedview
   pagecolor="#ffffff"
   bordercolor="#666666"
   borderopacity="1"
   objecttolerance="10"
   gridtolerance="10"
   guidetolerance="10"
   inkscape:pageopacity="0"
   inkscape:pageshadow="2"
   inkscape:window-width="1541"
   inkscape:window-height="1040"
   id="namedview227"
   showgrid="false"
   inkscape:zoom="1.19198"
   inkscape:cx="-134.33966"
   inkscape:cy="61.996672"
   inkscape:window-x="0"
   inkscape:window-y="0"
   inkscape:window-maximized="0"
   inkscape:current-layer="Layer_1"
   fit-margin-top="0"
   fit-margin-left="0"
   fit-margin-right="0"
   fit-margin-bottom="0" />
<path
   d="m -317.41788,-73.284785 3.596,-3.892 8.592,-11.578 15.023,2.287 c 0,0 17.385,17.802 25.635,22.541 8.25,4.739 -22.746,11.655 -33.641,11.196 -40.237,-1.696 -35.123,-11.196 -35.123,-11.196"
   id="path3"
   inkscape:connector-curvature="0"
   style="fill:#440800" />
<text
   id="text5"
   x="-367.32089"
   y="-126.29939"><tspan
     x="-367.32089"
     y="-126.29939"
     font-size="62.0021"
     letter-spacing="-4"
     id="tspan7"
     style="font-size:62.0021019px;letter-spacing:-4;font-family:Bauhaus93">M</tspan><tspan
     x="-321.62488"
     y="-126.29939"
     font-size="62.0021"
     letter-spacing="-1"
     id="tspan9"
     style="font-size:62.0021019px;letter-spacing:-1;font-family:Bauhaus93">I</tspan><tspan
     x="-302.61789"
     y="-126.29939"
     font-size="62.0021"
     letter-spacing="-2"
     id="tspan11"
     style="font-size:62.0021019px;letter-spacing:-2;font-family:Bauhaus93">T</tspan><tspan
     x="-273.18887"
     y="-126.29939"
     font-size="62.0021"
     letter-spacing="-4"
     id="tspan13"
     style="font-size:62.0021019px;letter-spacing:-4;font-family:Bauhaus93">IE</tspan></text>


<path
   d="m -289.78888,-111.53179 c 0,4.653 -3.771,8.426 -8.424,8.426 l 0,0 c -4.652,0 -8.426,-3.772 -8.426,-8.426 l 0,0 c 0,-4.653 3.773,-8.425 8.426,-8.425 l 0,0 c 4.653,0 8.424,3.771 8.424,8.425 l 0,0 z"
   id="path15"
   inkscape:connector-curvature="0" />
<path
   d="m -306.63788,-103.10679 c 0,0 4.213,4.212005 16.85,1.579 7.229,-1.506 -1.053,20.889005 1.051,27.382005 2.65,8.189 9.123,26.703 13.428,28.434 0.967,0.389 5.457,-0.397 7.107,0.705 2.832,1.893 1.842,5.879 1.842,5.879 h -19.611 l -12.24,-23.955 -10.006,23.955 h -20.271 c 0,0 -1.138,-3.97 1.322,-6.056 1.255,-1.063 5.174,0.352 7.104,-1.053 6.756,-4.914 11.583,-27.119 11.583,-27.119 0,0 -5.268,-25.801 1.841,-29.751005 z"
   id="path17"
   inkscape:connector-curvature="0" />
<g
   id="g19"
   transform="translate(-3.6538816,-2.7597854)">
	<path
   d="m -289.814,-99.645 c 0,0 4.703,-8.303 17.898,-4.217 14.75,4.567 9.217,-14.743 9.217,-14.743 l 9.736,0.001 c 0,0 2.986,19.232 -5,26.856 -5.791,5.529 -12.178,3.556 -15.898,3.688 -24.91,0.892 21.676,32.514 12.943,26.892 -4.154,-2.674 -21.787,5.404 -25.473,5.404 0,0.001 2.723,-25.153 -3.423,-43.881 z"
   id="path21"
   inkscape:connector-curvature="0"
   style="fill:#891f1b" />
	<path
   d="m -252.963,-119.657 h -9.738 l -2.371,-3.16 c 0,0 1.379,-3.732 6.611,-2.444 7.088,1.745 2.518,-2.358 4.793,-2.405 3.121,-0.062 4,2.46 4,2.46 0,0 -0.672,5.549 -3.295,5.549 z"
   id="path23"
   inkscape:connector-curvature="0" />
</g>
<g
   id="g25"
   transform="translate(-3.6538816,-2.7597854)">
	<path
   d="m -299.785,-99.645 c 0,0 -4.702,-8.303 -17.898,-4.217 -14.749,4.567 -9.216,-14.743 -9.216,-14.743 l -9.736,0.001 c 0,0 -2.987,19.232 4.999,26.856 5.792,5.529 12.179,3.556 15.898,3.688 24.91,0.892 -21.675,32.514 -12.942,26.892 4.153,-2.674 21.786,5.404 25.472,5.404 -10e-4,0.001 -2.723,-25.153 3.423,-43.881 z"
   id="path27"
   inkscape:connector-curvature="0"
   style="fill:#891f1b" />
	<path
   d="m -336.636,-119.657 h 9.738 c 0,0 0.885,-3.158 -0.52,-4.006 -1.405,-0.848 -2.036,-2.222 -7.271,-0.934 -7.086,1.746 -3.369,-0.789 -5.645,-0.836 -3.12,-0.062 -3.731,-0.494 -3.731,-0.494 0,0 -5.352,6.27 7.429,6.27 z"
   id="path29"
   inkscape:connector-curvature="0" />
</g>
<g
   id="g31"
   transform="translate(-3.6538816,-2.7597854)">
	<g
   id="XMLID_1_">
		<g
   id="g34">
			<path
   d="m -277.118,-112.767 c 0.04,0.12 0.05,0.24 0.05,0.34 0,0.41 -0.27,0.69 -0.75,0.83 -0.199,0.06 -0.399,0.11 -0.6,0.12 -0.86,0.02 -1.73,0.05 -2.59,0.03 -0.8,-0.03 -1.521,0.16 -2.15,0.68 -0.149,0.12 -0.31,0.23 -0.47,0.34 -0.67,0.47 -1.3,0.99 -2.1,1.24 -0.11,0 -0.221,0 -0.33,0 -0.341,-0.17 -0.681,-0.34 -1.011,-0.52 -0.6,-0.31 -1.18,-0.63 -1.779,-0.92 -1.69,-0.8 -3.46,-1.34 -5.34,-1.45 -1.9,-0.12 -3.74,0.2 -5.48,0.98 -1.28,0.57 -2.5,1.27 -3.76,1.91 -0.11,0 -0.22,0 -0.33,0 -0.51,-0.28 -1.03,-0.54 -1.52,-0.84 -0.33,-0.2 -0.64,-0.42 -0.93,-0.67 -0.76,-0.65 -1.64,-0.79 -2.6,-0.75 -0.78,0.03 -1.56,0.01 -2.34,-0.04 -0.53,-0.04 -1.05,-0.17 -1.27,-0.77 0,-0.15 0,-0.3 0,-0.45 0.09,-0.27 0.16,-0.55 0.27,-0.81 0.49,-1.13 1.24,-2.08 2.02,-3.02 2.06,-2.52 4.53,-4.49 7.62,-5.62 0.6,-0.22 1.19,-0.45 1.64,-0.94 0.19,-0.21 0.43,-0.36 0.63,-0.55 0.87,-0.86 1.94,-1.27 3.14,-1.4 0.5,-0.05 0.99,-0.11 1.49,-0.16 0.58,0 1.15,0 1.73,0 0.52,0.06 1.05,0.1 1.57,0.17 1.029,0.15 2,0.43 2.79,1.15 0.42,0.4 0.859,0.77 1.31,1.13 0.17,0.14 0.38,0.25 0.59,0.34 1.11,0.52 2.28,0.96 3.34,1.57 2.73,1.56 4.79,3.84 6.48,6.45 0.31,0.49 0.52,1.06 0.68,1.63 z m -2.43,-0.75 c 0.02,-0.1 0.03,-0.14 0.02,-0.17 -0.01,-0.07 -0.02,-0.13 -0.04,-0.19 -0.159,-0.59 -0.51,-1.07 -0.88,-1.54 -0.88,-1.1 -1.92,-2.05 -3.02,-2.93 -1.99,-1.59 -4.11,-3 -6.49,-3.97 -0.95,-0.39 -1.93,-0.71 -2.99,-0.6 -0.58,0.05 -1.06,0.3 -1.3,0.86 -0.22,0.5 -0.02,0.93 0.28,1.32 0.19,0.25 0.41,0.48 0.61,0.72 0.38,0.44 0.76,0.87 0.95,1.43 0.33,0.98 -0.04,1.76 -0.99,2.01 -1,0.27 -2.03,0.26 -3.03,0 -0.9,-0.23 -1.27,-0.93 -1.04,-1.84 0.17,-0.65 0.6,-1.12 1.01,-1.62 0.28,-0.33 0.58,-0.66 0.8,-1.03 0.34,-0.58 0.17,-1.18 -0.38,-1.56 -0.42,-0.29 -0.9,-0.34 -1.39,-0.31 -0.99,0.05 -1.92,0.38 -2.82,0.78 -2.75,1.22 -5.19,2.92 -7.42,4.94 -0.85,0.77 -1.66,1.6 -2.26,2.59 -0.19,0.32 -0.37,0.65 -0.38,1.08 0.08,-0.04 0.12,-0.05 0.14,-0.07 0.12,-0.11 0.25,-0.21 0.36,-0.32 1.28,-1.33 2.61,-2.62 4.09,-3.75 1.97,-1.5 4.1,-2.7 6.53,-3.3 0.39,-0.1 0.79,-0.18 1.18,-0.19 0.44,-0.01 0.58,0.26 0.38,0.65 -0.12,0.24 -0.3,0.47 -0.44,0.71 -0.33,0.54 -0.71,1.07 -0.96,1.65 -0.31,0.73 -0.26,1.46 0.35,2.06 0.39,0.38 0.88,0.59 1.39,0.72 1.33,0.35 2.68,0.37 4.04,0.16 0.63,-0.1 1.25,-0.27 1.79,-0.63 0.69,-0.46 1,-1.16 0.76,-1.96 -0.149,-0.5 -0.42,-0.98 -0.68,-1.45 -0.24,-0.42 -0.55,-0.79 -0.8,-1.21 -0.25,-0.44 -0.08,-0.72 0.43,-0.71 0.3,0.01 0.61,0.08 0.9,0.15 2.54,0.59 4.75,1.83 6.8,3.39 1.479,1.13 2.8,2.43 4.09,3.76 0.11,0.12 0.25,0.22 0.41,0.37 z"
   id="path36"
   inkscape:connector-curvature="0" />
			<path
   d="m -279.528,-113.687 c 0.011,0.03 0,0.07 -0.02,0.17 -0.16,-0.15 -0.3,-0.25 -0.41,-0.37 -1.29,-1.33 -2.61,-2.63 -4.09,-3.76 -2.05,-1.56 -4.26,-2.8 -6.8,-3.39 -0.29,-0.07 -0.601,-0.14 -0.9,-0.15 -0.51,-0.01 -0.68,0.27 -0.43,0.71 0.25,0.42 0.56,0.79 0.8,1.21 0.26,0.47 0.53,0.95 0.68,1.45 0.24,0.8 -0.069,1.5 -0.76,1.96 -0.54,0.36 -1.16,0.53 -1.79,0.63 -1.36,0.21 -2.71,0.19 -4.04,-0.16 -0.51,-0.13 -1,-0.34 -1.39,-0.72 -0.61,-0.6 -0.66,-1.33 -0.35,-2.06 0.25,-0.58 0.63,-1.11 0.96,-1.65 0.14,-0.24 0.32,-0.47 0.44,-0.71 0.2,-0.39 0.06,-0.66 -0.38,-0.65 -0.39,0.01 -0.79,0.09 -1.18,0.19 -2.43,0.6 -4.56,1.8 -6.53,3.3 -1.48,1.13 -2.81,2.42 -4.09,3.75 -0.11,0.11 -0.24,0.21 -0.36,0.32 -0.02,0.02 -0.06,0.03 -0.14,0.07 0.01,-0.43 0.19,-0.76 0.38,-1.08 0.6,-0.99 1.41,-1.82 2.26,-2.59 2.23,-2.02 4.67,-3.72 7.42,-4.94 0.9,-0.4 1.83,-0.73 2.82,-0.78 0.49,-0.03 0.97,0.02 1.39,0.31 0.55,0.38 0.72,0.98 0.38,1.56 -0.22,0.37 -0.52,0.7 -0.8,1.03 -0.41,0.5 -0.84,0.97 -1.01,1.62 -0.23,0.91 0.14,1.61 1.04,1.84 1,0.26 2.03,0.27 3.03,0 0.95,-0.25 1.32,-1.03 0.99,-2.01 -0.189,-0.56 -0.57,-0.99 -0.95,-1.43 -0.2,-0.24 -0.42,-0.47 -0.61,-0.72 -0.3,-0.39 -0.5,-0.82 -0.28,-1.32 0.24,-0.56 0.72,-0.81 1.3,-0.86 1.06,-0.11 2.04,0.21 2.99,0.6 2.38,0.97 4.5,2.38 6.49,3.97 1.1,0.88 2.14,1.83 3.02,2.93 0.37,0.47 0.721,0.95 0.88,1.54 0.02,0.06 0.03,0.12 0.04,0.19 z"
   id="path38"
   inkscape:connector-curvature="0" />
		</g>
		<g
   id="g40">
		</g>
	</g>
</g>
<path
   d="m -304.06988,-102.10579 -7.486,0.704 2.984,27.475005 c 0,0 1.932,-26.995005 4.502,-28.179005 z"
   id="path42"
   inkscape:connector-curvature="0"
   style="fill:#440800" />
<path
   d="m -292.84488,-102.10579 7.486,0.704 -2.984,27.475005 c 0,0 -1.932,-26.995005 -4.502,-28.179005 z"
   id="path44"
   inkscape:connector-curvature="0"
   style="fill:#440800" />
<path
   d="m -337.44788,91.616215 3.019,-3.268 7.215,-9.723 12.615,1.921 c 0,0 14.599,14.948 21.527,18.929 6.927,3.978995 -19.101,9.785995 -28.25,9.399995 -33.788,-1.424 -29.494,-9.399995 -29.494,-9.399995"
   id="path46"
   inkscape:connector-curvature="0"
   style="fill:#440800" />
<path
   d="m -316.24988,61.821215 c 0,3.178 -2.575,5.754 -5.752,5.754 l 0,0 c -3.177,0 -5.753,-2.576 -5.753,-5.754 l 0,0 c 0,-3.177 2.577,-5.752 5.753,-5.752 l 0,0 c 3.177,0 5.752,2.575 5.752,5.752 l 0,0 z"
   id="path48"
   inkscape:connector-curvature="0" />
<path
   d="m -328.39688,66.574215 c 0,0 3.538,3.537 14.149,1.326 6.07,-1.265 -0.884,17.541 0.882,22.993 2.226,6.877 7.661,22.423995 11.276,23.876995 0.812,0.325 4.583,-0.335 5.968,0.592 2.378,1.589 1.547,4.937 1.547,4.937 h -16.468 l -10.278,-20.115 -8.402,20.115 h -17.022 c 0,0 -0.956,-3.333 1.11,-5.085 1.054,-0.893 4.345,0.295 5.965,-0.884 5.673,-4.126 9.727,-22.771995 9.727,-22.771995 0,0 -4.423,-21.668 1.546,-24.984 z"
   id="path50"
   inkscape:connector-curvature="0" />
<g
   id="g52"
   transform="translate(-3.6538816,-2.7597854)">
	<path
   d="m -313.684,69.924 c 0,0 3.949,-6.972 15.03,-3.541 12.386,3.835 7.74,-12.38 7.74,-12.38 l 8.175,10e-4 c 0,0 2.509,16.149 -4.197,22.552 -4.863,4.643 -10.226,2.985 -13.351,3.097 -20.917,0.749 18.202,27.303 10.87,22.583 -3.489,-2.246 -18.296,4.537 -21.391,4.537 -0.001,-10e-4 2.286,-21.123 -2.876,-36.849 z"
   id="path54"
   inkscape:connector-curvature="0"
   style="fill:#891f1b" />
	<path
   d="m -282.739,53.119 h -8.177 l -1.991,-2.654 c 0,0 1.158,-3.134 5.553,-2.052 5.951,1.465 2.113,-1.981 4.024,-2.021 2.62,-0.052 3.358,2.065 3.358,2.065 0,0 -0.564,4.662 -2.767,4.662 z"
   id="path56"
   inkscape:connector-curvature="0" />
</g>
<g
   id="g58"
   transform="translate(-3.6538816,-2.7597854)">
	<path
   d="m -322.057,69.924 c 0,0 -3.948,-6.972 -15.03,-3.541 -12.385,3.835 -7.739,-12.38 -7.739,-12.38 L -353,54.004 c 0,0 -2.509,16.149 4.198,22.552 4.864,4.643 10.227,2.985 13.35,3.097 20.918,0.749 -18.201,27.303 -10.868,22.583 3.488,-2.246 18.295,4.537 21.39,4.537 -10e-4,-10e-4 -2.287,-21.123 2.873,-36.849 z"
   id="path60"
   inkscape:connector-curvature="0"
   style="fill:#891f1b" />
	<path
   d="m -353,53.119 h 8.177 c 0,0 0.743,-2.652 -0.436,-3.365 -1.18,-0.711 -1.71,-1.864 -6.105,-0.783 -5.95,1.467 -2.829,-0.662 -4.74,-0.701 -2.62,-0.054 -3.133,-0.415 -3.133,-0.415 0,0 -4.496,5.264 6.237,5.264 z"
   id="path62"
   inkscape:connector-curvature="0" />
</g>
<g
   id="g64"
   transform="translate(-3.6538816,-2.7597854)">
	<g
   id="XMLID_2_">
		<g
   id="g67">
			<path
   d="m -308.002,60.78 c 0.024,0.071 0.03,0.143 0.03,0.202 0,0.244 -0.161,0.411 -0.446,0.494 -0.119,0.036 -0.238,0.065 -0.357,0.071 -0.512,0.012 -1.03,0.03 -1.542,0.019 -0.477,-0.019 -0.905,0.095 -1.28,0.404 -0.089,0.071 -0.185,0.137 -0.28,0.202 -0.399,0.28 -0.774,0.59 -1.25,0.738 -0.065,0 -0.131,0 -0.196,0 -0.203,-0.101 -0.405,-0.202 -0.602,-0.31 -0.357,-0.185 -0.703,-0.375 -1.06,-0.548 -1.006,-0.476 -2.06,-0.798 -3.18,-0.863 -1.131,-0.071 -2.227,0.119 -3.263,0.584 -0.762,0.339 -1.489,0.756 -2.239,1.137 -0.065,0 -0.131,0 -0.197,0 -0.304,-0.166 -0.613,-0.321 -0.905,-0.5 -0.197,-0.119 -0.381,-0.25 -0.554,-0.398 -0.453,-0.388 -0.977,-0.471 -1.548,-0.446 -0.464,0.018 -0.929,0.006 -1.393,-0.024 -0.316,-0.023 -0.625,-0.102 -0.756,-0.458 0,-0.09 0,-0.179 0,-0.269 0.054,-0.16 0.095,-0.327 0.161,-0.482 0.292,-0.673 0.738,-1.238 1.203,-1.798 1.227,-1.5 2.697,-2.673 4.537,-3.346 0.357,-0.132 0.708,-0.269 0.976,-0.561 0.113,-0.125 0.256,-0.214 0.375,-0.327 0.518,-0.512 1.155,-0.756 1.87,-0.834 0.297,-0.029 0.589,-0.065 0.887,-0.095 0.346,0 0.685,0 1.03,0 0.31,0.036 0.625,0.06 0.935,0.102 0.613,0.089 1.19,0.256 1.661,0.685 0.25,0.238 0.512,0.458 0.78,0.673 0.101,0.083 0.227,0.148 0.352,0.202 0.661,0.31 1.357,0.571 1.988,0.935 1.625,0.929 2.852,2.287 3.858,3.841 0.184,0.292 0.309,0.63 0.405,0.97 z"
   id="path69"
   inkscape:connector-curvature="0" />
		</g>
		<g
   id="g71">
		</g>
	</g>
</g>
<path
   d="m -326.23988,67.415215 -6.287,0.592 2.506,23.071 c 10e-4,0 1.623,-22.669 3.781,-23.663 z"
   id="path73"
   inkscape:connector-curvature="0"
   style="fill:#440800" />
<path
   d="m -316.81488,67.415215 6.287,0.592 -2.506,23.071 c 0,0 -1.622,-22.669 -3.781,-23.663 z"
   id="path75"
   inkscape:connector-curvature="0"
   style="fill:#440800" />





















<path
   d="m 0.6731184,-139.90379 c 0,17.609 0,35.082 0,52.498005 3.738,0 7.34,0 10.9749996,0 0,-17.559005 0,-34.988005 0,-52.498005 -3.6919996,0 -7.2989996,0 -10.9749996,0 z"
   id="path119"
   inkscape:connector-curvature="0"
   style="fill:none" />
<path
   d="m 47.876118,-87.346785 c 0,-17.621005 0,-35.051005 0,-52.527005 -3.736,0 -7.385,0 -10.973,0 0,17.582 0,35.055 0,52.527005 3.7,0 7.258,0 10.973,0 z"
   id="path121"
   inkscape:connector-curvature="0"
   style="fill:none" />
<path
   d="m 73.093118,-123.30979 c 0,12.039 0,23.998005 0,35.914005 3.75,0 7.354,0 10.979,0 0,-12.031 0,-23.947005 0,-35.914005 -3.729,0 -7.336,0 -10.979,0 z"
   id="path123"
   inkscape:connector-curvature="0"
   style="fill:none" />
<path
   d="m 55.046118,-87.606785 c 3.752,0 7.287,0 10.803,0 0,-11.98 0,-23.824005 0,-35.646005 -3.686,0 -7.223,0 -10.803,0 0,11.937 0,23.742005 0,35.646005 z"
   id="path125"
   inkscape:connector-curvature="0"
   style="fill:none" />
<path
   d="m 29.669118,-103.99679 c 0,-12.064 0,-23.975 0,-35.879 -3.709,0 -7.312,0 -10.832,0 0,12.018 0,23.932 0,35.879 3.656,0 7.168,0 10.832,0 z"
   id="path127"
   inkscape:connector-curvature="0"
   style="fill:none" />
<path
   d="m 102.14212,-139.89179 c -9.803002,0 -19.436002,0 -29.107002,0 0,3.512 0,6.936 0,10.381 9.752,0 19.422,0 29.107002,0 0,-3.506 0,-6.889 0,-10.381 z"
   id="path129"
   inkscape:connector-curvature="0"
   style="fill:none" />
<path
   d="m 65.898118,-129.44679 c 0,-3.605 0,-7.023 0,-10.412 -3.75,0 -7.396,0 -11.018,0 0,3.541 0,6.959 0,10.412 3.721,0 7.328,0 11.018,0 z"
   id="path131"
   inkscape:connector-curvature="0"
   style="fill:none" />
<path
   clip-rule="evenodd"
   d="m 0.6731184,-139.90379 c 3.676,0 7.283,0 10.9749996,0 0,17.51 0,34.939 0,52.498005 -3.6349996,0 -7.2359996,0 -10.9749996,0 0,-17.416005 0,-34.888005 0,-52.498005 z"
   id="path133"
   inkscape:connector-curvature="0"
   style="fill:#93111b;fill-rule:evenodd" />
<path
   clip-rule="evenodd"
   d="m 47.876118,-87.346785 c -3.715,0 -7.273,0 -10.973,0 0,-17.473005 0,-34.945005 0,-52.527005 3.588,0 7.236,0 10.973,0 0,17.476 0,34.906 0,52.527005 z"
   id="path135"
   inkscape:connector-curvature="0"
   style="fill:#93111b;fill-rule:evenodd" />
<path
   clip-rule="evenodd"
   d="m 73.093118,-123.30979 c 3.643,0 7.25,0 10.979,0 0,11.967 0,23.883005 0,35.914005 -3.625,0 -7.229,0 -10.979,0 0,-11.916 0,-23.875005 0,-35.914005 z"
   id="path137"
   inkscape:connector-curvature="0"
   style="fill:#93111c;fill-rule:evenodd" />
<path
   clip-rule="evenodd"
   d="m 55.046118,-87.606785 c 0,-11.904 0,-23.709005 0,-35.646005 3.58,0 7.117,0 10.803,0 0,11.822 0,23.666005 0,35.646005 -3.516,0 -7.051,0 -10.803,0 z"
   id="path139"
   inkscape:connector-curvature="0"
   style="fill:#6d6d6d;fill-rule:evenodd" />
<path
   clip-rule="evenodd"
   d="m 29.669118,-103.99679 c -3.664,0 -7.176,0 -10.832,0 0,-11.947 0,-23.861 0,-35.879 3.52,0 7.123,0 10.832,0 0,11.904 0,23.814 0,35.879 z"
   id="path141"
   inkscape:connector-curvature="0"
   style="fill:#92101a;fill-rule:evenodd" />
<path
   clip-rule="evenodd"
   d="m 102.14212,-139.89179 c 0,3.492 0,6.875 0,10.381 -9.686002,0 -19.355002,0 -29.107002,0 0,-3.445 0,-6.869 0,-10.381 9.671,0 19.304,0 29.107002,0 z"
   id="path143"
   inkscape:connector-curvature="0"
   style="fill:#92101a;fill-rule:evenodd" />
<path
   clip-rule="evenodd"
   d="m 65.898118,-129.44679 c -3.689,0 -7.297,0 -11.018,0 0,-3.453 0,-6.871 0,-10.412 3.621,0 7.268,0 11.018,0 0,3.389 0,6.807 0,10.412 z"
   id="path145"
   inkscape:connector-curvature="0"
   style="fill:#93111b;fill-rule:evenodd" />
<text
   font-size="95.782"
   id="text147"
   style="font-size:95.78199768px;font-family:EdwardianScriptITC"
   x="85.922318"
   y="-87.348686">ie</text>


<g
   id="g149"
   transform="translate(-3.6538816,-2.7597854)">
	<path
   d="m -355.923,3.57 c 0,15.448 0,30.775 0,46.054 3.279,0 6.439,0 9.627,0 0,-15.403 0,-30.693 0,-46.054 -3.238,0 -6.403,0 -9.627,0 z"
   id="path151"
   inkscape:connector-curvature="0"
   style="fill:none" />
	<path
   d="m -314.515,49.676 c 0,-15.458 0,-30.748 0,-46.079 -3.278,0 -6.479,0 -9.626,0 0,15.423 0,30.751 0,46.079 3.245,0 6.368,0 9.626,0 z"
   id="path153"
   inkscape:connector-curvature="0"
   style="fill:none" />
	<path
   d="m -292.394,18.127 c 0,10.562 0,21.053 0,31.506 3.29,0 6.451,0 9.631,0 0,-10.555 0,-21.008 0,-31.506 -3.27,0 -6.435,0 -9.631,0 z"
   id="path155"
   inkscape:connector-curvature="0"
   style="fill:none" />
	<path
   d="m -308.225,49.447 c 3.292,0 6.393,0 9.477,0 0,-10.51 0,-20.899 0,-31.271 -3.233,0 -6.336,0 -9.477,0 0,10.473 0,20.829 0,31.271 z"
   id="path157"
   inkscape:connector-curvature="0"
   style="fill:none" />
	<path
   d="m -330.487,35.069 c 0,-10.584 0,-21.032 0,-31.475 -3.253,0 -6.415,0 -9.502,0 0,10.542 0,20.993 0,31.475 3.207,0 6.288,0 9.502,0 z"
   id="path159"
   inkscape:connector-curvature="0"
   style="fill:none" />
	<path
   d="m -266.911,3.581 c -8.599,0 -17.05,0 -25.534,0 0,3.08 0,6.084 0,9.106 8.555,0 17.038,0 25.534,0 0,-3.075 0,-6.042 0,-9.106 z"
   id="path161"
   inkscape:connector-curvature="0"
   style="fill:none" />
	<path
   d="m -298.706,12.744 c 0,-3.163 0,-6.161 0,-9.134 -3.289,0 -6.488,0 -9.665,0 0,3.106 0,6.104 0,9.134 3.265,0 6.429,0 9.665,0 z"
   id="path163"
   inkscape:connector-curvature="0"
   style="fill:none" />
	<path
   clip-rule="evenodd"
   d="m -355.923,3.57 c 3.225,0 6.389,0 9.627,0 0,15.36 0,30.65 0,46.054 -3.188,0 -6.348,0 -9.627,0 0,-15.278 0,-30.605 0,-46.054 z"
   id="path165"
   inkscape:connector-curvature="0"
   style="fill:#93111b;fill-rule:evenodd" />
	<path
   clip-rule="evenodd"
   d="m -314.515,49.676 c -3.259,0 -6.381,0 -9.626,0 0,-15.328 0,-30.656 0,-46.079 3.147,0 6.348,0 9.626,0 0,15.331 0,30.621 0,46.079 z"
   id="path167"
   inkscape:connector-curvature="0"
   style="fill:#93111b;fill-rule:evenodd" />
	<path
   clip-rule="evenodd"
   d="m -292.394,18.127 c 3.195,0 6.36,0 9.631,0 0,10.498 0,20.951 0,31.506 -3.18,0 -6.341,0 -9.631,0 0,-10.453 0,-20.945 0,-31.506 z"
   id="path169"
   inkscape:connector-curvature="0"
   style="fill:#93111c;fill-rule:evenodd" />
	<path
   clip-rule="evenodd"
   d="m -308.225,49.447 c 0,-10.442 0,-20.798 0,-31.271 3.141,0 6.244,0 9.477,0 0,10.371 0,20.761 0,31.271 -3.084,0 -6.186,0 -9.477,0 z"
   id="path171"
   inkscape:connector-curvature="0"
   style="fill:#6d6d6d;fill-rule:evenodd" />
	<path
   clip-rule="evenodd"
   d="m -330.487,35.069 c -3.214,0 -6.295,0 -9.502,0 0,-10.481 0,-20.933 0,-31.475 3.087,0 6.249,0 9.502,0 0,10.443 0,20.891 0,31.475 z"
   id="path173"
   inkscape:connector-curvature="0"
   style="fill:#92101a;fill-rule:evenodd" />
	<path
   clip-rule="evenodd"
   d="m -266.911,3.581 c 0,3.063 0,6.031 0,9.106 -8.496,0 -16.979,0 -25.534,0 0,-3.022 0,-6.026 0,-9.106 8.484,0 16.935,0 25.534,0 z"
   id="path175"
   inkscape:connector-curvature="0"
   style="fill:#92101a;fill-rule:evenodd" />
	<path
   clip-rule="evenodd"
   d="m -298.706,12.744 c -3.236,0 -6.4,0 -9.665,0 0,-3.029 0,-6.027 0,-9.134 3.176,0 6.375,0 9.665,0 0,2.973 0,5.971 0,9.134 z"
   id="path177"
   inkscape:connector-curvature="0"
   style="fill:#93111b;fill-rule:evenodd" />
	<text
   transform="translate(-281.1387,49.6738)"
   font-size="84.0237"
   id="text179"
   style="font-size:84.0236969px;font-family:EdwardianScriptITC">ie</text>


</g>
<path
   d="m 252.85469,74.628709 c 0.199,-0.046 0.368,-0.085 0.538,-0.122 1.289,-0.275 2.58,-0.545 3.866,-0.834 0.187,-0.041 0.29,0.024 0.411,0.125 1.975,1.64 3.951,3.278 5.926,4.918 0.637,0.528 1.381,0.719 2.176,0.584 1.084,-0.185 1.84,-0.829 2.146,-1.888 0.313,-1.081 0.064,-2.062 -0.799,-2.819 -0.854,-0.748 -1.741,-1.457 -2.615,-2.182 -1.53,-1.27 -3.056,-2.546 -4.595,-3.806 -0.682,-0.56 -1.474,-0.732 -2.339,-0.547 -1.66,0.356 -3.319,0.713 -4.979,1.068 -2.051,0.439 -4.104,0.862 -6.149,1.322 -1.397,0.314 -2.665,0.908 -3.669,1.966 -1.055,1.11 -1.495,2.432 -1.271,3.95 0.139,0.949 0.532,1.803 1.08,2.586 2.514,3.591 5.028,7.182 7.543,10.772 0.054,0.078 0.101,0.162 0.154,0.248 -0.054,0.037 -0.088,0.062 -0.123,0.084 -1.892,1.214 -3.781,2.431 -5.675,3.641 -0.442,0.283 -0.799,0.646 -1.072,1.091 -0.752,1.226 -0.715,2.687996 0.104,3.785996 0.215,0.288 0.454,0.558 0.683,0.836 1.985,2.410995 3.971,4.822995 5.958,7.234995 0.844,1.024 1.933,1.43 3.231,1.205 2.446,-0.423 3.545,-3.396 1.976,-5.33 -1.053,-1.298 -2.123,-2.581995 -3.186,-3.871995 -0.348,-0.424 -0.696,-0.848 -1.056,-1.285 0.071,-0.05 0.125,-0.092 0.183,-0.128996 2.133,-1.358 4.264,-2.721 6.401,-4.071 0.845,-0.534 1.592,-1.167 2.166,-1.99 0.83,-1.188 1.21,-2.5 1.027,-3.947 -0.12,-0.959 -0.502,-1.822 -1.057,-2.613 -2.102,-2.995 -4.199,-5.992 -6.298,-8.989 -0.223,-0.321 -0.445,-0.645 -0.686,-0.993 z"
   id="path181"
   inkscape:connector-curvature="0"
   style="fill:none" />
<path
   d="m 243.93969,65.167709 c 0.017,-3.59 -2.82,-6.699 -6.692,-6.695 -3.893,0.005 -6.644,3.12 -6.689,6.596 -0.049,3.717 2.899,6.725 6.559,6.791 3.846,0.068 6.841,-3.02 6.822,-6.692 z"
   id="path183"
   inkscape:connector-curvature="0"
   style="fill:none" />
<path
   clip-rule="evenodd"
   d="m 266.22569,96.923709 c 0.082,0.119 0.186,0.231 0.302,0.316996 2.941,2.176 5.889,4.343995 8.826,6.522995 0.96,0.713 1.407,1.7 1.334,2.883 -0.107,1.729 -1.463,2.932 -2.913,3.07 -0.054,0.006 -0.105,0.032 -0.158,0.049 -0.169,0 -0.338,0 -0.508,0 -0.114,-0.023 -0.229,-0.049 -0.345,-0.068 -0.667,-0.114 -1.207,-0.474 -1.737,-0.866 -2.984,-2.212 -5.973,-4.419 -8.963,-6.624 -0.527,-0.389 -0.899,-0.905 -1.263,-1.437 -1.086,-1.588995 -2.18,-3.170995 -3.27,-4.755991 -0.027,-0.04 -0.052,-0.082 -0.088,-0.139 -1.356,-1.69 -3.169,-3.062 -2.697,-3.354 1.469,-0.903 1.619,-2.265 0,-2.875 -6.132,-2.312 5.883,-3.4 5.908,-3.438"
   id="path185"
   inkscape:connector-curvature="0"
   style="fill-rule:evenodd" />
<path
   clip-rule="evenodd"
   d="m 242.31969,85.275709 c -0.458,0.847 -1.188,1.272 -2.126,1.415 -0.646,0.098 -1.221,-0.117 -1.804,-0.317 -2.477,-0.85 -4.953,-1.7 -7.428,-2.555 -1.073,-0.371 -1.717,-1.11 -1.885,-2.246 -0.005,-0.031 -0.03,-0.06 -0.046,-0.09 0,-0.169 0,-0.339 0,-0.508 0.031,-0.127 0.062,-0.253 0.093,-0.38 0.306,-1.276 1.433,-2.145 2.743,-2.064 0.406,0.025 0.813,0.146 1.202,0.276 1.776,0.599 3.546,1.216 5.318,1.825 0.059,0.021 0.12,0.035 0.195,0.057 1.92,-6.915 3.86,-7.641 4.19,-8.273 0.174,0.248 3.818,3.124 3.979,3.358 0.96,1.393 -2.372,5.748 -3.819,7.952"
   id="path187"
   inkscape:connector-curvature="0"
   style="fill-rule:evenodd" />
<path
   clip-rule="evenodd"
   d="m 252.85469,74.628709 c 0.241,0.348 0.463,0.672 0.688,0.993 2.099,2.997 2.584,5.025 6.243,7.15 1.841,0.625 2.967,3.438 2.467,5.087 -0.75,2.914 -1.553,2.125 -2.383,3.312 -0.574,0.823 -1.321,1.456 -2.166,1.99 -2.138,1.351 -4.269,2.713 -6.401,4.071 -0.058,0.037 -0.111,0.079 -0.183,0.128996 0.359,0.438 0.708,0.861 1.056,1.285 1.062,1.29 2.133,2.573995 3.186,3.871995 1.569,1.934 0.471,4.907 -1.976,5.33 -1.299,0.225 -2.388,-0.181 -3.231,-1.205 -1.987,-2.412 -3.973,-4.824 -5.958,-7.234995 -0.229,-0.278 -0.468,-0.548 -0.683,-0.836 -0.819,-1.099 -0.856,-2.560996 -0.104,-3.785996 0.273,-0.445 0.63,-0.808 1.072,-1.091 1.894,-1.21 3.783,-2.427 5.675,-3.641 0.035,-0.022 0.069,-0.047 0.123,-0.084 -0.054,-0.086 -0.101,-0.17 -0.154,-0.248 -2.515,-3.591 -5.029,-7.182 -7.543,-10.772 -0.548,-0.783 -0.941,-1.637 -1.08,-2.586 -0.224,-1.519 0.217,-2.84 1.271,-3.95 1.004,-1.058 2.271,-1.651 3.669,-1.966 2.527,-0.925 4.385,-2.022 6.436,-2.462 1.659,-0.355 3.125,-0.095 4.692,0.071 0.865,-0.186 1.657,-0.013 2.339,0.547 1.539,1.26 3.064,2.536 4.595,3.806 0.874,0.725 1.762,1.434 2.615,2.182 0.863,0.757 1.112,1.738 0.799,2.819 -0.307,1.059 -1.062,1.703 -2.146,1.888 -0.795,0.135 -1.539,-0.056 -2.176,-0.584 -1.975,-1.64 -3.951,-3.278 -5.926,-4.918 -0.121,-0.101 -0.225,-0.166 -0.411,-0.125 -1.286,0.289 -2.577,0.559 -3.866,0.834 -0.171,0.038 -0.34,0.077 -0.539,0.123 z"
   id="path189"
   inkscape:connector-curvature="0"
   style="fill-rule:evenodd" />
<path
   clip-rule="evenodd"
   d="m 243.93969,65.167709 c 0.02,3.672 -2.976,6.76 -6.823,6.691 -3.659,-0.066 -6.607,-3.074 -6.559,-6.791 0.046,-3.476 2.797,-6.591 6.689,-6.596 3.872,-0.003 6.709,3.107 6.693,6.696 z"
   id="path191"
   inkscape:connector-curvature="0"
   style="fill-rule:evenodd" />
<path
   clip-rule="evenodd"
   d="m 245.46569,74.838709 c 0,0 1.77,-64.801 14.913,-71.9760007 25.377,-13.8520003 31.622,13.4420007 46.676,-3.866 3.614,-4.155 13.75,-11.7959993 23.833,-9.9860003 11.516,2.0660003 22.315,1.8970003 25.038,-2.501999 4.129,-6.672 -6.538,9.0899993 -1.872,16.3939993 7.181,11.2400007 13.332,25.3940007 0.999,33.3590007 -15.162,9.793 -34.823,9.723 -42.665,15.672 -7.843,5.948 -13.521,23.022 -30.018,19.507 -16.495,-3.515 -25.72,-8.215 -36.904,3.398 z"
   id="path193"
   inkscape:connector-curvature="0"
   style="fill:#93111b;fill-rule:evenodd" />
<g
   id="g195"
   transform="translate(227.05469,-23.733291)">
	<path
   d="m 26.244,52.823 c 5.224,12.396 10.407,24.694 15.573,36.953 2.632,-1.109 5.167,-2.178 7.726,-3.256 -5.209,-12.359 -10.38,-24.628 -15.574,-36.953 -2.598,1.095 -5.138,2.165 -7.725,3.256 z"
   id="path197"
   inkscape:connector-curvature="0"
   style="fill:none" />
	<path
   d="M 75.062,75.814 C 69.834,63.411 64.665,51.142 59.48,38.84 c -2.631,1.108 -5.198,2.19 -7.724,3.255 5.215,12.376 10.398,24.675 15.582,36.974 2.604,-1.097 5.108,-2.152 7.724,-3.255 z"
   id="path199"
   inkscape:connector-curvature="0"
   style="fill:none" />
	<path
   d="m 82.143,43.02 c 3.572,8.475 7.119,16.893 10.654,25.28 2.641,-1.113 5.177,-2.182 7.729,-3.257 -3.569,-8.47 -7.104,-16.856 -10.654,-25.28 -2.626,1.106 -5.164,2.175 -7.729,3.257 z"
   id="path201"
   inkscape:connector-curvature="0"
   style="fill:none" />
	<path
   d="m 80.031,73.505 c 2.642,-1.113 5.13,-2.162 7.604,-3.205 -3.554,-8.433 -7.067,-16.77 -10.574,-25.091 -2.595,1.094 -5.084,2.143 -7.604,3.205 3.541,8.402 7.043,16.712 10.574,25.091 z"
   id="path203"
   inkscape:connector-curvature="0"
   style="fill:none" />
	<path
   d="M 57.307,69.495 C 53.728,61.004 50.195,52.62 46.663,44.24 c -2.611,1.101 -5.147,2.169 -7.625,3.213 3.565,8.46 7.1,16.846 10.644,25.256 2.574,-1.085 5.046,-2.127 7.625,-3.214 z"
   id="path205"
   inkscape:connector-curvature="0"
   style="fill:none" />
	<path
   d="m 97.672,22.73 c -6.899,2.907 -13.681,5.766 -20.488,8.635 1.042,2.472 2.058,4.882 3.079,7.307 6.865,-2.893 13.671,-5.761 20.488,-8.635 -1.04,-2.468 -2.044,-4.849 -3.079,-7.307 z"
   id="path207"
   inkscape:connector-curvature="0"
   style="fill:none" />
	<path
   d="m 75.258,40.834 c -1.069,-2.537 -2.084,-4.943 -3.089,-7.328 -2.64,1.112 -5.206,2.193 -7.755,3.269 1.05,2.492 2.063,4.897 3.088,7.328 2.62,-1.104 5.159,-2.174 7.756,-3.269 z"
   id="path209"
   inkscape:connector-curvature="0"
   style="fill:none" />
	<path
   clip-rule="evenodd"
   d="m 26.244,52.823 c 2.587,-1.091 5.127,-2.161 7.725,-3.256 5.194,12.325 10.365,24.594 15.574,36.953 -2.559,1.078 -5.094,2.146 -7.726,3.256 C 36.651,77.518 31.468,65.219 26.244,52.823 z"
   id="path211"
   inkscape:connector-curvature="0"
   style="fill:#ffffff;fill-rule:evenodd" />
	<path
   clip-rule="evenodd"
   d="m 75.062,75.814 c -2.615,1.103 -5.119,2.157 -7.724,3.255 C 62.154,66.77 56.971,54.471 51.756,42.095 c 2.525,-1.064 5.093,-2.146 7.724,-3.255 5.184,12.303 10.354,24.571 15.582,36.974 z"
   id="path213"
   inkscape:connector-curvature="0"
   style="fill:#ffffff;fill-rule:evenodd" />
	<path
   clip-rule="evenodd"
   d="m 82.143,43.02 c 2.565,-1.081 5.104,-2.15 7.729,-3.257 3.551,8.424 7.085,16.811 10.654,25.28 -2.552,1.075 -5.088,2.144 -7.729,3.257 C 89.262,59.912 85.715,51.494 82.143,43.02 z"
   id="path215"
   inkscape:connector-curvature="0"
   style="fill:#ffffff;fill-rule:evenodd" />
	<path
   clip-rule="evenodd"
   d="M 80.031,73.505 C 76.5,65.126 72.998,56.817 69.457,48.414 c 2.521,-1.062 5.01,-2.111 7.604,-3.205 3.507,8.321 7.021,16.658 10.574,25.091 -2.474,1.043 -4.962,2.092 -7.604,3.205 z"
   id="path217"
   inkscape:connector-curvature="0"
   style="fill:#ffffff;fill-rule:evenodd" />
	<path
   clip-rule="evenodd"
   d="m 57.307,69.495 c -2.579,1.087 -5.051,2.129 -7.625,3.214 -3.544,-8.41 -7.078,-16.796 -10.644,-25.256 2.478,-1.044 5.014,-2.112 7.625,-3.213 3.531,8.38 7.065,16.764 10.644,25.255 z"
   id="path219"
   inkscape:connector-curvature="0"
   style="fill:#ffffff;fill-rule:evenodd" />
	<path
   clip-rule="evenodd"
   d="m 97.672,22.73 c 1.035,2.457 2.039,4.839 3.079,7.307 -6.817,2.874 -13.623,5.742 -20.488,8.635 -1.021,-2.425 -2.037,-4.835 -3.079,-7.307 6.807,-2.869 13.588,-5.727 20.488,-8.635 z"
   id="path221"
   inkscape:connector-curvature="0"
   style="fill:#ffffff;fill-rule:evenodd" />
	<path
   clip-rule="evenodd"
   d="m 75.258,40.834 c -2.597,1.095 -5.136,2.165 -7.756,3.269 -1.024,-2.431 -2.038,-4.836 -3.088,-7.328 2.549,-1.075 5.115,-2.156 7.755,-3.269 1.005,2.385 2.019,4.791 3.089,7.328 z"
   id="path223"
   inkscape:connector-curvature="0"
   style="fill:#ffffff;fill-rule:evenodd" />
	
		<text
   transform="matrix(0.9215,-0.3884,0.3884,0.9215,101.8428,64.5264)"
   font-size="73.1641"
   id="text225"
   style="font-size:73.16410065px;fill:#ffffff;font-family:EdwardianScriptITC">ie</text>


</g>
<path
   id="path3208"
   d="m -216.11291,182.01306 c 0.199,-0.046 0.368,-0.085 0.538,-0.122 1.289,-0.275 2.58,-0.545 3.866,-0.834 0.187,-0.041 0.29,0.024 0.411,0.125 1.975,1.64 3.951,3.278 5.926,4.918 0.637,0.528 1.381,0.719 2.176,0.584 1.084,-0.185 1.84,-0.829 2.146,-1.888 0.313,-1.081 0.064,-2.062 -0.799,-2.819 -0.854,-0.748 -1.741,-1.457 -2.615,-2.182 -1.53,-1.27 -3.056,-2.546 -4.595,-3.806 -0.682,-0.56 -1.474,-0.732 -2.339,-0.547 -1.66,0.356 -3.319,0.713 -4.979,1.068 -2.051,0.439 -4.104,0.862 -6.149,1.322 -1.397,0.314 -2.665,0.908 -3.669,1.966 -1.055,1.11 -1.495,2.432 -1.271,3.95 0.139,0.949 0.532,1.803 1.08,2.586 2.514,3.591 5.028,7.182 7.543,10.772 0.054,0.078 0.101,0.162 0.154,0.248 -0.054,0.037 -0.088,0.062 -0.123,0.084 -1.892,1.214 -3.781,2.431 -5.675,3.641 -0.442,0.283 -0.799,0.646 -1.072,1.091 -0.752,1.226 -0.715,2.688 0.104,3.786 0.215,0.288 0.454,0.558 0.683,0.836 1.985,2.411 3.971,4.823 5.958,7.235 0.844,1.024 1.933,1.43 3.231,1.205 2.446,-0.423 3.545,-3.396 1.976,-5.33 -1.053,-1.298 -2.123,-2.582 -3.186,-3.872 -0.348,-0.424 -0.696,-0.848 -1.056,-1.285 0.071,-0.05 0.125,-0.092 0.183,-0.129 2.133,-1.358 4.264,-2.721 6.401,-4.071 0.845,-0.534 1.592,-1.167 2.166,-1.99 0.83,-1.188 1.21,-2.5 1.027,-3.947 -0.12,-0.959 -0.502,-1.822 -1.057,-2.613 -2.102,-2.995 -4.199,-5.992 -6.298,-8.989 -0.223,-0.321 -0.445,-0.645 -0.686,-0.993 z"
   inkscape:connector-curvature="0"
   style="fill:none" /><path
   id="path3210"
   d="m -225.02791,172.55206 c 0.017,-3.59 -2.82,-6.699 -6.692,-6.695 -3.893,0.005 -6.644,3.12 -6.689,6.596 -0.049,3.717 2.899,6.725 6.559,6.791 3.846,0.068 6.841,-3.02 6.822,-6.692 z"
   inkscape:connector-curvature="0"
   style="fill:none" /><path
   id="path3212"
   d="m -202.74191,204.30806 c 0.082,0.119 0.186,0.231 0.302,0.317 2.941,2.176 5.889,4.344 8.826,6.523 0.96,0.713 1.407,1.7 1.334,2.883 -0.107,1.729 -1.463,2.932 -2.913,3.07 -0.054,0.006 -0.105,0.032 -0.158,0.049 -0.169,0 -0.338,0 -0.508,0 -0.114,-0.023 -0.229,-0.049 -0.345,-0.068 -0.667,-0.114 -1.207,-0.474 -1.737,-0.866 -2.984,-2.212 -5.973,-4.419 -8.963,-6.624 -0.527,-0.389 -0.899,-0.905 -1.263,-1.437 -1.086,-1.589 -2.18,-3.171 -3.27,-4.756 -0.027,-0.04 -0.052,-0.082 -0.088,-0.139 -1.356,-1.69 -3.169,-3.062 -2.697,-3.354 1.469,-0.903 1.619,-2.265 0,-2.875 -6.132,-2.312 5.883,-3.4 5.908,-3.438"
   clip-rule="evenodd"
   inkscape:connector-curvature="0"
   style="fill-rule:evenodd" /><path
   id="path3214"
   d="m -226.64791,192.66006 c -0.458,0.847 -1.188,1.272 -2.126,1.415 -0.646,0.098 -1.221,-0.117 -1.804,-0.317 -2.477,-0.85 -4.953,-1.7 -7.428,-2.555 -1.073,-0.371 -1.717,-1.11 -1.885,-2.246 -0.005,-0.031 -0.03,-0.06 -0.046,-0.09 0,-0.169 0,-0.339 0,-0.508 0.031,-0.127 0.062,-0.253 0.093,-0.38 0.306,-1.276 1.433,-2.145 2.743,-2.064 0.406,0.025 0.813,0.146 1.202,0.276 1.776,0.599 3.546,1.216 5.318,1.825 0.059,0.021 0.12,0.035 0.195,0.057 1.92,-6.915 3.86,-7.641 4.19,-8.273 0.174,0.248 3.818,3.124 3.979,3.358 0.96,1.393 -2.372,5.748 -3.819,7.952"
   clip-rule="evenodd"
   inkscape:connector-curvature="0"
   style="fill-rule:evenodd" /><path
   id="path3216"
   d="m -216.11291,182.01306 c 0.241,0.348 0.463,0.672 0.688,0.993 2.099,2.997 2.584,5.025 6.243,7.15 1.841,0.625 2.967,3.438 2.467,5.087 -0.75,2.914 -1.553,2.125 -2.383,3.312 -0.574,0.823 -1.321,1.456 -2.166,1.99 -2.138,1.351 -4.269,2.713 -6.401,4.071 -0.058,0.037 -0.111,0.079 -0.183,0.129 0.359,0.438 0.708,0.861 1.056,1.285 1.062,1.29 2.133,2.574 3.186,3.872 1.569,1.934 0.471,4.907 -1.976,5.33 -1.299,0.225 -2.388,-0.181 -3.231,-1.205 -1.987,-2.412 -3.973,-4.824 -5.958,-7.235 -0.229,-0.278 -0.468,-0.548 -0.683,-0.836 -0.819,-1.099 -0.856,-2.561 -0.104,-3.786 0.273,-0.445 0.63,-0.808 1.072,-1.091 1.894,-1.21 3.783,-2.427 5.675,-3.641 0.035,-0.022 0.069,-0.047 0.123,-0.084 -0.054,-0.086 -0.101,-0.17 -0.154,-0.248 -2.515,-3.591 -5.029,-7.182 -7.543,-10.772 -0.548,-0.783 -0.941,-1.637 -1.08,-2.586 -0.224,-1.519 0.217,-2.84 1.271,-3.95 1.004,-1.058 2.271,-1.651 3.669,-1.966 2.527,-0.925 4.385,-2.022 6.436,-2.462 1.659,-0.355 3.125,-0.095 4.692,0.071 0.865,-0.186 1.657,-0.013 2.339,0.547 1.539,1.26 3.064,2.536 4.595,3.806 0.874,0.725 1.762,1.434 2.615,2.182 0.863,0.757 1.112,1.738 0.799,2.819 -0.307,1.059 -1.062,1.703 -2.146,1.888 -0.795,0.135 -1.539,-0.056 -2.176,-0.584 -1.975,-1.64 -3.951,-3.278 -5.926,-4.918 -0.121,-0.101 -0.225,-0.166 -0.411,-0.125 -1.286,0.289 -2.577,0.559 -3.866,0.834 -0.171,0.038 -0.34,0.077 -0.539,0.123 z"
   clip-rule="evenodd"
   inkscape:connector-curvature="0"
   style="fill-rule:evenodd" /><path
   id="path3218"
   d="m -225.02791,172.55206 c 0.02,3.672 -2.976,6.76 -6.823,6.691 -3.659,-0.066 -6.607,-3.074 -6.559,-6.791 0.046,-3.476 2.797,-6.591 6.689,-6.596 3.872,-0.003 6.709,3.107 6.693,6.696 z"
   clip-rule="evenodd"
   inkscape:connector-curvature="0"
   style="fill-rule:evenodd" /><path
   id="path3220"
   d="m -223.50191,182.22306 c 0,0 1.77,-64.801 14.913,-71.976 25.377,-13.851999 31.622,13.442 46.676,-3.866 3.614,-4.155 13.75,-11.795999 23.833,-9.985999 11.516,2.066004 22.315,1.897004 25.038,-2.502 4.129,-6.672 -6.538,9.089999 -1.872,16.393999 7.181,11.24 13.332,25.394 0.999,33.359 -15.162,9.793 -34.823,9.723 -42.665,15.672 -7.843,5.948 -13.521,23.022 -30.018,19.507 -16.495,-3.515 -25.72,-8.215 -36.904,3.398 z"
   clip-rule="evenodd"
   inkscape:connector-curvature="0"
   style="fill:#93111b;fill-rule:evenodd" /><path
   style="fill:none;stroke:#000000;stroke-opacity:1"
   inkscape:connector-curvature="0"
   d="m -179.23311,-77.82221 c 0,17.608 0,35.082 0,52.496 3.739,0 7.341,0 10.976,0 0,-17.557 0,-34.986 0,-52.496 -3.693,0 -7.299,0 -10.976,0 z"
   id="path77" /><path
   style="fill:none;stroke:#000000;stroke-opacity:1"
   inkscape:connector-curvature="0"
   d="m -132.03011,-25.26721 c 0,-17.621 0,-35.05 0,-52.526 -3.735,0 -7.385,0 -10.972,0 0,17.582 0,35.055 0,52.526 3.699,0 7.257,0 10.972,0 z"
   id="path79" /><path
   style="fill:none;stroke:#000000;stroke-opacity:1"
   inkscape:connector-curvature="0"
   d="m -106.81211,-61.22921 c 0,12.04 0,23.998 0,35.914 3.749,0 7.353002,0 10.978002,0 0,-12.031 0,-23.947 0,-35.914 -3.729,0 -7.336002,0 -10.978002,0 z"
   id="path81" /><path
   style="fill:none;stroke:#000000;stroke-opacity:1"
   inkscape:connector-curvature="0"
   d="m -124.85911,-25.52721 c 3.752,0 7.287,0 10.802,0 0,-11.981 0,-23.823 0,-35.646 -3.685,0 -7.223,0 -10.802,0 0,11.939 0,23.741 0,35.646 z"
   id="path83" /><path
   style="fill:none;stroke:#000000;stroke-opacity:1"
   inkscape:connector-curvature="0"
   d="m -150.23611,-41.91821 c 0,-12.063 0,-23.973 0,-35.878 -3.71,0 -7.313,0 -10.833,0 0,12.019 0,23.933 0,35.878 3.657,0 7.168,0 10.833,0 z"
   id="path85" /><path
   style="fill:none;stroke:#000000;stroke-opacity:1"
   inkscape:connector-curvature="0"
   d="m -77.763106,-77.81121 c -9.804,0 -19.437002,0 -29.107004,0 0,3.512 0,6.935 0,10.38 9.752002,0 19.421004,0 29.107004,0 0,-3.506 0,-6.887 0,-10.38 z"
   id="path87" /><path
   style="fill:none;stroke:#000000;stroke-opacity:1"
   inkscape:connector-curvature="0"
   d="m -114.00711,-67.36621 c 0,-3.604 0,-7.023 0,-10.413 -3.751,0 -7.397,0 -11.018,0 0,3.542 0,6.96 0,10.413 3.721,0 7.327,0 11.018,0 z"
   id="path89" /><path
   style="fill:#93111b;fill-rule:evenodd;stroke:#000000;stroke-opacity:1"
   inkscape:connector-curvature="0"
   clip-rule="evenodd"
   d="m -179.23311,-77.82221 c 3.677,0 7.283,0 10.976,0 0,17.509 0,34.939 0,52.496 -3.635,0 -7.236,0 -10.976,0 0,-17.414 0,-34.888 0,-52.496 z"
   id="path91" /><path
   style="fill:#93111b;fill-rule:evenodd;stroke:#000000;stroke-opacity:1"
   inkscape:connector-curvature="0"
   clip-rule="evenodd"
   d="m -132.03011,-25.26721 c -3.715,0 -7.273,0 -10.972,0 0,-17.471 0,-34.944 0,-52.526 3.587,0 7.236,0 10.972,0 0,17.476 0,34.906 0,52.526 z"
   id="path93" /><path
   style="fill:#93111c;fill-rule:evenodd;stroke:#000000;stroke-opacity:1"
   inkscape:connector-curvature="0"
   clip-rule="evenodd"
   d="m -106.81211,-61.22921 c 3.642,0 7.249002,0 10.978002,0 0,11.967 0,23.882 0,35.914 -3.625,0 -7.229002,0 -10.978002,0 0,-11.917 0,-23.874 0,-35.914 z"
   id="path95" /><path
   style="fill:#6d6d6d;fill-rule:evenodd;stroke:#000000;stroke-opacity:1"
   inkscape:connector-curvature="0"
   clip-rule="evenodd"
   d="m -124.85911,-25.52721 c 0,-11.905 0,-23.708 0,-35.646 3.579,0 7.117,0 10.802,0 0,11.823 0,23.664 0,35.646 -3.515,0 -7.05,0 -10.802,0 z"
   id="path97" /><path
   style="fill:#92101a;fill-rule:evenodd;stroke:#000000;stroke-opacity:1"
   inkscape:connector-curvature="0"
   clip-rule="evenodd"
   d="m -150.23611,-41.91821 c -3.665,0 -7.176,0 -10.833,0 0,-11.945 0,-23.859 0,-35.878 3.52,0 7.123,0 10.833,0 0,11.905 0,23.815 0,35.878 z"
   id="path99" /><path
   style="fill:#92101a;fill-rule:evenodd;stroke:#000000;stroke-opacity:1"
   inkscape:connector-curvature="0"
   clip-rule="evenodd"
   d="m -77.763106,-77.81121 c 0,3.493 0,6.874 0,10.38 -9.687,0 -19.355002,0 -29.107004,0 0,-3.445 0,-6.868 0,-10.38 9.670002,0 19.303004,0 29.107004,0 z"
   id="path101" /><path
   style="fill:#93111b;fill-rule:evenodd;stroke:#000000;stroke-opacity:1"
   inkscape:connector-curvature="0"
   clip-rule="evenodd"
   d="m -114.00711,-67.36621 c -3.69,0 -7.297,0 -11.018,0 0,-3.453 0,-6.871 0,-10.413 3.62,0 7.267,0 11.018,0 0,3.39 0,6.809 0,10.413 z"
   id="path103" /><path
   style="fill-rule:evenodd;stroke:#000000;stroke-opacity:1"
   d="m -87.240458,-61.30525 0,10.4375 9.46875,0 0,-10.4375 -9.46875,0 z m 0,13.6875 0,22.21875 9.46875,0 0,-22.21875 -9.46875,0 z"
   id="path105"
   inkscape:connector-curvature="0" /><path
   style="fill:none;stroke:#000000;stroke-width:0.88578755;stroke-opacity:1"
   inkscape:connector-curvature="0"
   d="m -72.958212,-25.695104 c 8.548308,0 17.032327,0 25.486212,0 0,-2.921327 0,-5.734861 0,-8.573391 -8.523195,0 -16.985116,0 -25.486212,0 0,2.883834 0,5.702055 0,8.573391 z"
   id="path107" /><path
   style="fill:none;stroke:#000000;stroke-width:0.54280496;stroke-opacity:1"
   inkscape:connector-curvature="0"
   d="m -55.318508,-54.977808 c -5.984735,0 -11.892491,0 -17.798196,0 0,1.064738 0,2.099334 0,3.109528 5.962155,0 11.870938,0 17.798196,0 0,-1.04981 0,-2.057708 0,-3.109528 z"
   id="path109" /><path
   style="fill-rule:evenodd;stroke:#000000;stroke-opacity:1"
   inkscape:connector-curvature="0"
   clip-rule="evenodd"
   d="m -72.901106,-25.75221 c 0,-3.158 0,-6.258 0,-9.429 8.463,0 16.887,0 25.372,0 0,3.121 0,6.216 0,9.429 -8.416,0 -16.862,0 -25.372,0 z"
   id="path111" /><path
   style="fill-rule:evenodd;stroke:#000000;stroke-opacity:1"
   inkscape:connector-curvature="0"
   clip-rule="evenodd"
   d="m -47.499106,-60.699207 c 0,3.192 0,6.25 0,9.426 -8.444,0 -16.89,0 -25.388,0 0,-3.081 0,-6.215 0,-9.426 8.447,0 16.871,0 25.388,0 z"
   id="path113" /><path
   style="fill-rule:evenodd;stroke:#000000;stroke-opacity:1"
   inkscape:connector-curvature="0"
   clip-rule="evenodd"
   d="m -55.560106,-47.88021 c 0,3.148 0,6.165 0,9.306 -5.774,0 -11.532,0 -17.341,0 0,-3.023 0,-6.12 0,-9.306 5.754,0 11.51,0 17.341,0 z"
   id="path115" /><path
   id="path4067"
   d="m -215.75188,138.25518 c 5.93698,11.83601 11.82878,23.58195 17.70035,35.28755 2.51334,-1.2607 4.93459,-2.4752 7.37801,-3.70084 -5.91978,-11.80172 -11.79641,-23.51741 -17.70035,-35.28754 -2.48242,1.24519 -4.90635,2.46104 -7.37801,3.70083 z"
   inkscape:connector-curvature="0"
   style="fill:#ffffff;fill-opacity:1;stroke:#000000;stroke-width:0.75201935;stroke-opacity:0.32275133"
   inkscape:transform-center-x="11.56273"
   inkscape:transform-center-y="-26.471989" /><path
   id="path4069"
   d="m -166.30202,157.66671 c -5.94136,-11.84475 -11.81799,-23.56043 -17.71046,-35.30772 -2.51065,1.25936 -4.96416,2.49004 -7.37533,3.69949 5.92822,11.81854 11.81968,23.56379 17.71046,35.30771 2.48646,-1.24721 4.87813,-2.44688 7.37533,-3.69948 z"
   inkscape:connector-curvature="0"
   style="fill:#ffffff;fill-opacity:1;stroke:#000000;stroke-width:0.75201935;stroke-opacity:0.32275133"
   inkscape:transform-center-x="-12.805054"
   inkscape:transform-center-y="-38.657938" /><path
   id="path4071"
   d="m -161.4761,124.99035 c 4.05959,8.09322 8.09152,16.13133 12.10931,24.1412 2.52005,-1.26406 4.94264,-2.47924 7.37935,-3.7015 -4.05655,-8.08718 -8.07433,-16.09706 -12.10931,-24.14121 -2.50661,1.25732 -4.93122,2.47352 -7.37935,3.70151 z"
   inkscape:connector-curvature="0"
   style="fill:#ffffff;fill-opacity:1;stroke:#000000;stroke-width:0.75201935;stroke-opacity:0.32275133"
   inkscape:transform-center-x="-39.918198"
   inkscape:transform-center-y="-45.310333" /><path
   id="path4073"
   d="m -161.56937,155.07405 c 2.52206,-1.26508 4.89827,-2.457 7.26104,-3.64216 -4.03969,-8.05357 -8.03252,-16.01371 -12.01895,-23.96106 -2.47703,1.24249 -4.85526,2.43541 -7.26104,3.64216 4.02553,8.02534 8.00487,15.95858 12.01895,23.96106 z"
   inkscape:connector-curvature="0"
   style="fill:#ffffff;fill-opacity:1;stroke:#000000;stroke-width:0.75201935;stroke-opacity:0.32275133"
   inkscape:transform-center-x="-27.701644"
   inkscape:transform-center-y="-39.248091" /><path
   id="path4075"
   d="m -184.15431,152.6126 c -4.06734,-8.10868 -8.08309,-16.11453 -12.09717,-24.11701 -2.49384,1.25092 -4.91576,2.46577 -7.28188,3.65262 4.0525,8.07912 8.06961,16.08764 12.09717,24.11701 2.45821,-1.23305 4.81829,-2.41687 7.28188,-3.65262 z"
   inkscape:connector-curvature="0"
   style="fill:#ffffff;fill-opacity:1;stroke:#000000;stroke-width:0.75201935;stroke-opacity:0.32275133"
   inkscape:transform-center-x="2.1938653"
   inkscape:transform-center-y="-38.140124" /><path
   id="path4077"
   d="m -147.54055,104.04941 c -6.5902,3.30567 -13.06546,6.55367 -19.56558,9.81416 1.18416,2.36075 2.33831,4.66167 3.49987,6.97738 6.55525,-3.28813 13.05471,-6.54828 19.56558,-9.81416 -1.18213,-2.35671 -2.32212,-4.6294 -3.49987,-6.97738 z"
   inkscape:connector-curvature="0"
   style="fill:#ffffff;fill-opacity:1;stroke:#000000;stroke-width:0.75201935;stroke-opacity:0.32275133"
   inkscape:transform-center-x="-36.076566"
   inkscape:transform-center-y="-68.075351" /><path
   id="path4079"
   d="m -168.38179,123.29106 c -1.21518,-2.42259 -2.36799,-4.72082 -3.51101,-6.99956 -2.5214,1.26474 -4.97222,2.49408 -7.40624,3.715 1.19428,2.38091 2.34674,4.67847 3.511,6.99956 2.50124,-1.25463 4.92518,-2.47048 7.40625,-3.715 z"
   inkscape:connector-curvature="0"
   style="fill:#ffffff;fill-opacity:1;stroke:#000000;stroke-width:0.75201935;stroke-opacity:0.32275133"
   inkscape:transform-center-x="-17.809555"
   inkscape:transform-center-y="-58.871748" /><path
   id="path4081"
   d="m -215.75188,138.25518 c 2.47166,-1.23979 4.89559,-2.45564 7.37801,-3.70083 5.90361,11.76946 11.78057,23.48582 17.70035,35.28754 -2.44342,1.22564 -4.864,2.43981 -7.37801,3.70084 -5.87157,-11.7056 -11.76337,-23.45154 -17.70035,-35.28755 z"
   clip-rule="evenodd"
   inkscape:connector-curvature="0"
   style="fill:#ffffff;fill-opacity:1;fill-rule:evenodd;stroke:#000000;stroke-width:0.75201935;stroke-opacity:0.32275133"
   inkscape:transform-center-x="11.56273"
   inkscape:transform-center-y="-26.471989" /><path
   id="path4083"
   d="m -166.30202,157.66671 c -2.4972,1.2526 -4.88887,2.45227 -7.37533,3.69948 -5.89078,-11.74392 -11.78224,-23.48917 -17.71046,-35.30771 2.41117,-1.20945 4.864,-2.4398 7.37533,-3.69949 5.89247,11.74729 11.76943,23.46365 17.71046,35.30772 z"
   clip-rule="evenodd"
   inkscape:connector-curvature="0"
   style="fill:#ffffff;fill-opacity:1;fill-rule:evenodd;stroke:#000000;stroke-width:0.75201935;stroke-opacity:0.32275133"
   inkscape:transform-center-x="-12.805054"
   inkscape:transform-center-y="-38.657938" /><path
   id="path4085"
   d="m -161.4761,124.99035 c 2.44813,-1.22799 4.87274,-2.44419 7.37935,-3.70151 4.03498,8.04415 8.05242,16.05336 12.10931,24.14121 -2.43671,1.22226 -4.8593,2.43744 -7.37935,3.7015 -4.01812,-8.01054 -8.04972,-16.04798 -12.10931,-24.1412 z"
   clip-rule="evenodd"
   inkscape:connector-curvature="0"
   style="fill:#ffffff;fill-opacity:1;fill-rule:evenodd;stroke:#000000;stroke-width:0.75201935;stroke-opacity:0.32275133"
   inkscape:transform-center-x="-39.918198"
   inkscape:transform-center-y="-45.310333" /><path
   id="path4087"
   d="m -161.56937,155.07405 c -4.01408,-8.00248 -7.99375,-15.93639 -12.01895,-23.96106 2.40578,-1.20675 4.78401,-2.39967 7.26104,-3.64216 3.98643,7.94735 7.97892,15.90682 12.01895,23.96106 -2.36277,1.18516 -4.73898,2.37708 -7.26104,3.64216 z"
   clip-rule="evenodd"
   inkscape:connector-curvature="0"
   style="fill:#ffffff;fill-opacity:1;fill-rule:evenodd;stroke:#000000;stroke-width:0.75201935;stroke-opacity:0.32275133"
   inkscape:transform-center-x="-27.701644"
   inkscape:transform-center-y="-39.248091" /><path
   id="path4089"
   d="m -184.15431,152.6126 c -2.46359,1.23575 -4.82367,2.41957 -7.28188,3.65262 -4.02756,-8.02937 -8.04467,-16.03789 -12.09717,-24.11701 2.36612,-1.18685 4.78804,-2.4017 7.28188,-3.65262 4.01408,8.00248 8.02983,16.00833 12.09717,24.11701 z"
   clip-rule="evenodd"
   inkscape:connector-curvature="0"
   style="fill:#ffffff;fill-opacity:1;fill-rule:evenodd;stroke:#000000;stroke-width:0.75201935;stroke-opacity:0.32275133"
   inkscape:transform-center-x="2.1938653"
   inkscape:transform-center-y="-38.140124" /><path
   id="path4091"
   d="m -147.54055,104.04941 c 1.17775,2.34798 2.31774,4.62067 3.49987,6.97738 -6.51154,3.26622 -13.01033,6.52603 -19.56558,9.81416 -1.16156,-2.31571 -2.31571,-4.61663 -3.49987,-6.97738 6.50012,-3.26049 12.97538,-6.50849 19.56558,-9.81416 z"
   clip-rule="evenodd"
   inkscape:connector-curvature="0"
   style="fill:#ffffff;fill-opacity:1;fill-rule:evenodd;stroke:#000000;stroke-width:0.75201935;stroke-opacity:0.32275133"
   inkscape:transform-center-x="-36.076566"
   inkscape:transform-center-y="-68.075351" /><path
   id="path4093"
   d="m -168.38179,123.29106 c -2.4804,1.24418 -4.90501,2.46037 -7.40625,3.715 -1.16426,-2.32109 -2.31672,-4.61865 -3.511,-6.99956 2.43334,-1.22058 4.88484,-2.45026 7.40624,-3.715 1.14302,2.27874 2.29583,4.57697 3.51101,6.99956 z"
   clip-rule="evenodd"
   inkscape:connector-curvature="0"
   style="fill:#ffffff;fill-opacity:1;fill-rule:evenodd;stroke:#000000;stroke-width:0.75201935;stroke-opacity:0.32275133"
   inkscape:transform-center-x="-17.809555"
   inkscape:transform-center-y="-58.871748" /><path
   inkscape:connector-curvature="0"
   id="path4095"
   d="m -148.34578,118.34016 3.51927,7.01604 6.36484,-3.19263 -3.51926,-7.01604 -6.36485,3.19263 z m 4.61509,9.20067 7.49161,14.93533 6.36484,-3.19263 -7.49161,-14.93533 -6.36484,3.19263 z"
   style="fill:#100000;fill-opacity:1;fill-rule:evenodd;stroke:#000000;stroke-width:0.75201935;stroke-opacity:1"
   inkscape:transform-center-x="-52.539962"
   inkscape:transform-center-y="-51.708686" /><path
   id="path4097"
   d="m -126.73847,137.4615 c 5.74613,-2.88228 11.44904,-5.74288 17.1317,-8.59332 -0.985,-1.9637 -1.93365,-3.85495 -2.89073,-5.76299 -5.72925,2.87381 -11.41731,5.72696 -17.1317,8.59332 0.97235,1.93849 1.92259,3.83288 2.89073,5.76299 z"
   inkscape:connector-curvature="0"
   style="fill:#100000;fill-opacity:1;stroke:#000000;stroke-width:0.66612935;stroke-opacity:1"
   inkscape:transform-center-x="-72.031986"
   inkscape:transform-center-y="-50.237184" /><path
   id="path4099"
   d="m -124.75455,111.83014 c -4.02291,2.01791 -7.99407,4.00985 -11.96386,6.00112 0.359,0.71571 0.70784,1.41115 1.04845,2.0902 4.00773,-2.01029 7.97959,-4.00258 11.96386,-6.00111 -0.35397,-0.70568 -0.6938,-1.38318 -1.04845,-2.09021 z"
   inkscape:connector-curvature="0"
   style="fill:#100000;fill-opacity:1;stroke:#000000;stroke-width:0.40819982;stroke-opacity:1"
   inkscape:transform-center-x="-61.437722"
   inkscape:transform-center-y="-64.644733" /><path
   id="path4101"
   d="m -126.71934,137.40385 c -1.0648,-2.12279 -2.11004,-4.20659 -3.17923,-6.33812 5.68879,-2.85352 11.35136,-5.69388 17.05494,-8.55481 1.05232,2.09792 2.09588,4.17837 3.17922,6.33813 -5.65719,2.83766 -11.33455,5.68544 -17.05493,8.5548 z"
   clip-rule="evenodd"
   inkscape:connector-curvature="0"
   style="fill:#100000;fill-opacity:1;fill-rule:evenodd;stroke:#000000;stroke-width:0.75201935;stroke-opacity:1"
   inkscape:transform-center-x="-71.868484"
   inkscape:transform-center-y="-50.563145" /><path
   id="path4103"
   d="m -121.42751,105.34774 c 1.07627,2.14565 2.10735,4.20122 3.17822,6.33611 -5.67602,2.84711 -11.35338,5.69489 -17.06568,8.5602 -1.03884,-2.07103 -2.09555,-4.17769 -3.17822,-6.33611 5.67803,-2.84812 11.3406,-5.68848 17.06568,-8.5602 z"
   clip-rule="evenodd"
   inkscape:connector-curvature="0"
   style="fill:#100000;fill-opacity:1;fill-rule:evenodd;stroke:#000000;stroke-width:0.75201935;stroke-opacity:1"
   inkscape:transform-center-x="-63.278731"
   inkscape:transform-center-y="-67.724634" /><path
   id="path4105"
   d="m -122.52382,116.68257 c 1.06143,2.11607 2.07869,4.14409 3.13775,6.25545 -3.88125,1.94685 -7.75175,3.88831 -11.65653,5.84696 -1.01928,-2.03205 -2.06351,-4.11384 -3.13775,-6.25545 3.86781,-1.94011 7.73696,-3.88089 11.65653,-5.84696 z"
   clip-rule="evenodd"
   inkscape:connector-curvature="0"
   style="fill:#100000;fill-opacity:1;fill-rule:evenodd;stroke:#000000;stroke-width:0.75201935;stroke-opacity:1"
   inkscape:transform-center-x="-64.866761"
   inkscape:transform-center-y="-57.786755" /><path
   style="fill:none"
   inkscape:connector-curvature="0"
   d="m 23.824,89.729637 c 0.199,-0.046 0.368,-0.085 0.538,-0.122 1.289,-0.275 2.58,-0.545 3.866,-0.834 0.187,-0.041 0.29,0.024 0.411,0.125 1.975,1.64 3.951,3.278 5.926,4.918 0.637,0.528 1.381,0.719 2.176,0.584 1.084,-0.185 1.84,-0.829 2.146,-1.888 0.313,-1.081 0.064,-2.062 -0.799,-2.819 -0.854,-0.748 -1.741,-1.457 -2.615,-2.182 -1.53,-1.27 -3.056,-2.546 -4.595,-3.806 -0.682,-0.56 -1.474,-0.732 -2.339,-0.547 -1.66,0.356 -3.319,0.713 -4.979,1.068 -2.051,0.439 -4.104,0.862 -6.149,1.322 -1.397,0.314 -2.665,0.908 -3.669,1.966 -1.055,1.11 -1.495,2.432 -1.271,3.95 0.139,0.949 0.532,1.803 1.08,2.586 2.514,3.590998 5.028,7.181993 7.543,10.771993 0.054,0.078 0.101,0.162 0.154,0.248 -0.054,0.037 -0.088,0.062 -0.123,0.084 -1.892,1.214 -3.781,2.431 -5.675,3.641 -0.442,0.283 -0.799,0.646 -1.072,1.091 -0.752,1.226 -0.715,2.688 0.104,3.786 0.215,0.288 0.454,0.558 0.683,0.836 1.985,2.411 3.971,4.823 5.958,7.235 0.844,1.024 1.933,1.43 3.231,1.205 2.446,-0.423 3.545,-3.396 1.976,-5.33 -1.053,-1.298 -2.123,-2.582 -3.186,-3.872 -0.348,-0.424 -0.696,-0.848 -1.056,-1.285 0.071,-0.05 0.125,-0.092 0.183,-0.129 2.133,-1.358 4.264,-2.721 6.401,-4.071 0.845,-0.534 1.592,-1.167 2.166,-1.99 0.83,-1.188 1.21,-2.5 1.027,-3.947 -0.12,-0.959 -0.502,-1.822 -1.057,-2.612995 -2.102,-2.994998 -4.199,-5.991998 -6.298,-8.988998 -0.223,-0.321 -0.445,-0.645 -0.686,-0.993 z"
   id="path4107" /><path
   style="fill:none"
   inkscape:connector-curvature="0"
   d="m 14.909,80.268637 c 0.017,-3.59 -2.82,-6.699 -6.6919996,-6.695 -3.8930004,0.005 -6.6440004,3.12 -6.6890004,6.596 -0.049,3.717 2.899,6.725 6.5590004,6.791 3.8459996,0.068 6.8409996,-3.02 6.8219996,-6.692 z"
   id="path4109" /><path
   style="fill-rule:evenodd"
   inkscape:connector-curvature="0"
   clip-rule="evenodd"
   d="m 37.195,112.02463 c 0.082,0.119 0.186,0.231 0.302,0.317 2.941,2.176 5.889,4.344 8.826,6.523 0.96,0.713 1.407,1.7 1.334,2.883 -0.107,1.729 -1.463,2.932 -2.913,3.07 -0.054,0.006 -0.105,0.032 -0.158,0.049 -0.169,0 -0.338,0 -0.508,0 -0.114,-0.023 -0.229,-0.049 -0.345,-0.068 -0.667,-0.114 -1.207,-0.474 -1.737,-0.866 -2.984,-2.212 -5.973,-4.419 -8.963,-6.624 -0.527,-0.389 -0.899,-0.905 -1.263,-1.437 -1.086,-1.589 -2.18,-3.171 -3.27,-4.756 -0.027,-0.04 -0.052,-0.082 -0.088,-0.139 -1.356,-1.69 -3.169,-3.062 -2.697,-3.354 1.469,-0.903 1.619,-2.265 0,-2.875 -6.132,-2.312 5.883,-3.4 5.908,-3.438"
   id="path4111" /><path
   style="fill-rule:evenodd"
   inkscape:connector-curvature="0"
   clip-rule="evenodd"
   d="m 13.289,100.37663 c -0.458,0.847 -1.188,1.272 -2.126,1.415 -0.646,0.098 -1.2209996,-0.117 -1.8039996,-0.317 -2.477,-0.85 -4.9530004,-1.699995 -7.4280004,-2.554995 -1.073,-0.371 -1.717,-1.11 -1.885,-2.245998 -0.005,-0.031 -0.03,-0.06 -0.046,-0.09 0,-0.169 0,-0.339 0,-0.508 0.031,-0.127 0.062,-0.253 0.093,-0.38 0.306,-1.276 1.433,-2.145 2.743,-2.064 0.406,0.025 0.813,0.146 1.202,0.276 1.776,0.599 3.5460004,1.216 5.3180004,1.825 0.059,0.021 0.12,0.035 0.195,0.057 1.9199996,-6.915 3.8599996,-7.641 4.1899996,-8.273 0.174,0.248 3.818,3.124 3.979,3.358 0.96,1.393 -2.372,5.748 -3.819,7.951998"
   id="path4113" /><path
   style="fill-rule:evenodd"
   inkscape:connector-curvature="0"
   clip-rule="evenodd"
   d="m 23.824,89.729637 c 0.241,0.348 0.463,0.672 0.688,0.993 2.099,2.997 2.584,5.025 6.243,7.149998 1.841,0.625 2.967,3.437995 2.467,5.086995 -0.75,2.914 -1.553,2.125 -2.383,3.312 -0.574,0.823 -1.321,1.456 -2.166,1.99 -2.138,1.351 -4.269,2.713 -6.401,4.071 -0.058,0.037 -0.111,0.079 -0.183,0.129 0.359,0.438 0.708,0.861 1.056,1.285 1.062,1.29 2.133,2.574 3.186,3.872 1.569,1.934 0.471,4.907 -1.976,5.33 -1.299,0.225 -2.388,-0.181 -3.231,-1.205 -1.987,-2.412 -3.973,-4.824 -5.958,-7.235 -0.229,-0.278 -0.468,-0.548 -0.683,-0.836 -0.819,-1.099 -0.856,-2.561 -0.104,-3.786 0.273,-0.445 0.63,-0.808 1.072,-1.091 1.894,-1.21 3.783,-2.427 5.675,-3.641 0.035,-0.022 0.069,-0.047 0.123,-0.084 -0.054,-0.086 -0.101,-0.17 -0.154,-0.248 -2.515,-3.591 -5.029,-7.181995 -7.543,-10.771993 -0.548,-0.783 -0.941,-1.637 -1.08,-2.586 -0.224,-1.519 0.217,-2.84 1.271,-3.95 1.004,-1.058 2.271,-1.651 3.669,-1.966 2.527,-0.925 4.385,-2.022 6.436,-2.462 1.659,-0.355 3.125,-0.095 4.692,0.071 0.865,-0.186 1.657,-0.013 2.339,0.547 1.539,1.26 3.064,2.536 4.595,3.806 0.874,0.725 1.762,1.434 2.615,2.182 0.863,0.757 1.112,1.738 0.799,2.819 -0.307,1.059 -1.062,1.703 -2.146,1.888 -0.795,0.135 -1.539,-0.056 -2.176,-0.584 -1.975,-1.64 -3.951,-3.278 -5.926,-4.918 -0.121,-0.101 -0.225,-0.166 -0.411,-0.125 -1.286,0.289 -2.577,0.559 -3.866,0.834 -0.171,0.038 -0.34,0.077 -0.539,0.123 z"
   id="path4115" /><path
   style="fill-rule:evenodd"
   inkscape:connector-curvature="0"
   clip-rule="evenodd"
   d="m 14.909,80.268637 c 0.02,3.672 -2.976,6.76 -6.8229996,6.691 C 4.427,86.893637 1.479,83.885637 1.527,80.168637 c 0.046,-3.476 2.797,-6.591 6.6890004,-6.596 3.8719996,-0.003 6.7089996,3.107 6.6929996,6.696 z"
   id="path4117" /><path
   style="fill:#93111b;fill-rule:evenodd"
   inkscape:connector-curvature="0"
   clip-rule="evenodd"
   d="m 16.435,89.939637 c 0,0 1.77,-64.801 14.913,-71.976 25.377,-13.8520006 31.622,13.442 46.675999,-3.866 3.614,-4.1550004 13.75,-11.7960006 23.833001,-9.9860006 11.516,2.066 22.315,1.897 25.038,-2.502 4.129,-6.672 -6.538,9.0900006 -1.872,16.3940006 7.181,11.24 13.332,25.394 0.999,33.359 -15.162,9.793 -34.823001,9.723 -42.665001,15.672 -7.843,5.948 -13.520999,23.022 -30.017999,19.507 -16.495,-3.515 -25.72,-8.215 -36.904,3.398 z"
   id="path4119" /><path
   inkscape:transform-center-y="-26.471989"
   inkscape:transform-center-x="11.56273"
   style="fill:#ffffff;fill-opacity:1;stroke:#000000;stroke-width:0.75201935;stroke-opacity:0.32275133"
   inkscape:connector-curvature="0"
   d="m 24.18503,45.971757 c 5.93698,11.83601 11.82878,23.58195 17.70035,35.28755 2.51334,-1.2607 4.93459,-2.4752 7.37801,-3.70084 -5.91978,-11.80172 -11.79641,-23.51741 -17.70035,-35.28754 -2.48242,1.24519 -4.90635,2.46104 -7.37801,3.70083 z"
   id="path4121" /><path
   inkscape:transform-center-y="-38.657938"
   inkscape:transform-center-x="-12.805054"
   style="fill:#ffffff;fill-opacity:1;stroke:#000000;stroke-width:0.75201935;stroke-opacity:0.32275133"
   inkscape:connector-curvature="0"
   d="M 73.63489,65.383287 C 67.69353,53.538537 61.8169,41.822857 55.92443,30.075567 c -2.51065,1.25936 -4.96416,2.49004 -7.37533,3.69949 5.92822,11.81854 11.81968,23.56379 17.71046,35.30771 2.48646,-1.24721 4.87813,-2.44688 7.37533,-3.69948 z"
   id="path4123" /><path
   inkscape:transform-center-y="-45.310333"
   inkscape:transform-center-x="-39.918198"
   style="fill:#ffffff;fill-opacity:1;stroke:#000000;stroke-width:0.75201935;stroke-opacity:0.32275133"
   inkscape:connector-curvature="0"
   d="m 78.460809,32.706927 c 4.05959,8.09322 8.09152,16.13133 12.10931,24.1412 2.52005,-1.26406 4.942641,-2.47924 7.379349,-3.7015 -4.056549,-8.08718 -8.074329,-16.09706 -12.109309,-24.14121 -2.50661,1.25732 -4.93122,2.47352 -7.37935,3.70151 z"
   id="path4125" /><path
   inkscape:transform-center-y="-39.248091"
   inkscape:transform-center-x="-27.701644"
   style="fill:#ffffff;fill-opacity:1;stroke:#000000;stroke-width:0.75201935;stroke-opacity:0.32275133"
   inkscape:connector-curvature="0"
   d="m 78.367539,62.790627 c 2.52206,-1.26508 4.89827,-2.457 7.26104,-3.64216 -4.03969,-8.05357 -8.03252,-16.01371 -12.018949,-23.96106 -2.47703,1.24249 -4.85526,2.43541 -7.26104,3.64216 4.02553,8.02534 8.00487,15.95858 12.018949,23.96106 z"
   id="path4127" /><path
   inkscape:transform-center-y="-38.140124"
   inkscape:transform-center-x="2.1938653"
   style="fill:#ffffff;fill-opacity:1;stroke:#000000;stroke-width:0.75201935;stroke-opacity:0.32275133"
   inkscape:connector-curvature="0"
   d="m 55.7826,60.329177 c -4.06734,-8.10868 -8.08309,-16.11453 -12.09717,-24.11701 -2.49384,1.25092 -4.91576,2.46577 -7.28188,3.65262 4.0525,8.07912 8.06961,16.08764 12.09717,24.11701 2.45821,-1.23305 4.81829,-2.41687 7.28188,-3.65262 z"
   id="path4129" /><path
   inkscape:transform-center-y="-68.075351"
   inkscape:transform-center-x="-36.076566"
   style="fill:#ffffff;fill-opacity:1;stroke:#000000;stroke-width:0.75201935;stroke-opacity:0.32275133"
   inkscape:connector-curvature="0"
   d="m 92.396359,11.765987 c -6.5902,3.30567 -13.06546,6.55367 -19.565579,9.81416 1.18416,2.36075 2.33831,4.66167 3.499869,6.97738 6.55525,-3.28813 13.05471,-6.54828 19.565581,-9.81416 -1.182131,-2.35671 -2.322121,-4.6294 -3.499871,-6.97738 z"
   id="path4131" /><path
   inkscape:transform-center-y="-58.871748"
   inkscape:transform-center-x="-17.809555"
   style="fill:#ffffff;fill-opacity:1;stroke:#000000;stroke-width:0.75201935;stroke-opacity:0.32275133"
   inkscape:connector-curvature="0"
   d="m 71.55512,31.007637 c -1.21518,-2.42259 -2.36799,-4.72082 -3.51101,-6.99956 -2.5214,1.26474 -4.97222,2.49408 -7.40624,3.715 1.19428,2.38091 2.34674,4.67847 3.511,6.99956 2.50124,-1.25463 4.92518,-2.47048 7.40625,-3.715 z"
   id="path4133" /><path
   inkscape:transform-center-y="-26.471989"
   inkscape:transform-center-x="11.56273"
   style="fill:#ffffff;fill-opacity:1;fill-rule:evenodd;stroke:#000000;stroke-width:0.75201935;stroke-opacity:0.32275133"
   inkscape:connector-curvature="0"
   clip-rule="evenodd"
   d="m 24.18503,45.971757 c 2.47166,-1.23979 4.89559,-2.45564 7.37801,-3.70083 5.90361,11.76946 11.78057,23.48582 17.70035,35.28754 -2.44342,1.22564 -4.864,2.43981 -7.37801,3.70084 -5.87157,-11.7056 -11.76337,-23.45154 -17.70035,-35.28755 z"
   id="path4135" /><path
   inkscape:transform-center-y="-38.657938"
   inkscape:transform-center-x="-12.805054"
   style="fill:#ffffff;fill-opacity:1;fill-rule:evenodd;stroke:#000000;stroke-width:0.75201935;stroke-opacity:0.32275133"
   inkscape:connector-curvature="0"
   clip-rule="evenodd"
   d="m 73.63489,65.383287 c -2.4972,1.2526 -4.88887,2.45227 -7.37533,3.69948 -5.89078,-11.74392 -11.78224,-23.48917 -17.71046,-35.30771 2.41117,-1.20945 4.864,-2.4398 7.37533,-3.69949 5.89247,11.74729 11.76943,23.46365 17.71046,35.30772 z"
   id="path4137" /><path
   inkscape:transform-center-y="-45.310333"
   inkscape:transform-center-x="-39.918198"
   style="fill:#ffffff;fill-opacity:1;fill-rule:evenodd;stroke:#000000;stroke-width:0.75201935;stroke-opacity:0.32275133"
   inkscape:connector-curvature="0"
   clip-rule="evenodd"
   d="m 78.460809,32.706927 c 2.44813,-1.22799 4.87274,-2.44419 7.37935,-3.70151 4.03498,8.04415 8.05242,16.05336 12.109309,24.14121 -2.436708,1.22226 -4.859299,2.43744 -7.379349,3.7015 -4.01812,-8.01054 -8.04972,-16.04798 -12.10931,-24.1412 z"
   id="path4139" /><path
   inkscape:transform-center-y="-39.248091"
   inkscape:transform-center-x="-27.701644"
   style="fill:#ffffff;fill-opacity:1;fill-rule:evenodd;stroke:#000000;stroke-width:0.75201935;stroke-opacity:0.32275133"
   inkscape:connector-curvature="0"
   clip-rule="evenodd"
   d="M 78.367539,62.790627 C 74.35346,54.788147 70.37379,46.854237 66.34859,38.829567 c 2.40578,-1.20675 4.78401,-2.39967 7.26104,-3.64216 3.986429,7.94735 7.978919,15.90682 12.018949,23.96106 -2.36277,1.18516 -4.73898,2.37708 -7.26104,3.64216 z"
   id="path4141" /><path
   inkscape:transform-center-y="-38.140124"
   inkscape:transform-center-x="2.1938653"
   style="fill:#ffffff;fill-opacity:1;fill-rule:evenodd;stroke:#000000;stroke-width:0.75201935;stroke-opacity:0.32275133"
   inkscape:connector-curvature="0"
   clip-rule="evenodd"
   d="m 55.7826,60.329177 c -2.46359,1.23575 -4.82367,2.41957 -7.28188,3.65262 -4.02756,-8.02937 -8.04467,-16.03789 -12.09717,-24.11701 2.36612,-1.18685 4.78804,-2.4017 7.28188,-3.65262 4.01408,8.00248 8.02983,16.00833 12.09717,24.11701 z"
   id="path4143" /><path
   inkscape:transform-center-y="-68.075351"
   inkscape:transform-center-x="-36.076566"
   style="fill:#ffffff;fill-opacity:1;fill-rule:evenodd;stroke:#000000;stroke-width:0.75201935;stroke-opacity:0.32275133"
   inkscape:connector-curvature="0"
   clip-rule="evenodd"
   d="m 92.396359,11.765987 c 1.17775,2.34798 2.31774,4.62067 3.499871,6.97738 -6.511541,3.26622 -13.010331,6.52603 -19.565581,9.81416 -1.161559,-2.31571 -2.315709,-4.61663 -3.499869,-6.97738 6.500119,-3.26049 12.975379,-6.50849 19.565579,-9.81416 z"
   id="path4145" /><path
   inkscape:transform-center-y="-58.871748"
   inkscape:transform-center-x="-17.809555"
   style="fill:#ffffff;fill-opacity:1;fill-rule:evenodd;stroke:#000000;stroke-width:0.75201935;stroke-opacity:0.32275133"
   inkscape:connector-curvature="0"
   clip-rule="evenodd"
   d="m 71.55512,31.007637 c -2.4804,1.24418 -4.90501,2.46037 -7.40625,3.715 -1.16426,-2.32109 -2.31672,-4.61865 -3.511,-6.99956 2.43334,-1.22058 4.88484,-2.45026 7.40624,-3.715 1.14302,2.27874 2.29583,4.57697 3.51101,6.99956 z"
   id="path4147" /><path
   inkscape:transform-center-y="-51.708686"
   inkscape:transform-center-x="-52.539962"
   style="fill:#100000;fill-opacity:1;fill-rule:evenodd;stroke:#000000;stroke-width:0.75201935;stroke-opacity:1"
   d="m 91.591129,26.056737 3.51927,7.01604 6.364841,-3.19263 -3.519262,-7.01604 -6.364849,3.19263 z m 4.615091,9.20067 7.49161,14.93533 6.36484,-3.19263 -7.49161,-14.93533 -6.36484,3.19263 z"
   id="path4149"
   inkscape:connector-curvature="0" /><path
   inkscape:transform-center-y="-50.237184"
   inkscape:transform-center-x="-72.031986"
   style="fill:#100000;fill-opacity:1;stroke:#000000;stroke-width:0.66612935;stroke-opacity:1"
   inkscape:connector-curvature="0"
   d="m 113.19844,45.178077 c 5.74613,-2.88228 11.44904,-5.74288 17.1317,-8.59332 -0.985,-1.9637 -1.93365,-3.85495 -2.89073,-5.76299 -5.72925,2.87381 -11.41731,5.72696 -17.1317,8.59332 0.97235,1.93849 1.92259,3.83288 2.89073,5.76299 z"
   id="path4151" /><path
   inkscape:transform-center-y="-64.644733"
   inkscape:transform-center-x="-61.437722"
   style="fill:#100000;fill-opacity:1;stroke:#000000;stroke-width:0.40819982;stroke-opacity:1"
   inkscape:connector-curvature="0"
   d="m 115.18236,19.546717 c -4.02291,2.01791 -7.99407,4.00985 -11.96386,6.00112 0.359,0.71571 0.70784,1.41115 1.04845,2.0902 4.00773,-2.01029 7.97959,-4.00258 11.96386,-6.00111 -0.35397,-0.70568 -0.6938,-1.38318 -1.04845,-2.09021 z"
   id="path4153" /><path
   inkscape:transform-center-y="-50.563145"
   inkscape:transform-center-x="-71.868484"
   style="fill:#100000;fill-opacity:1;fill-rule:evenodd;stroke:#000000;stroke-width:0.75201935;stroke-opacity:1"
   inkscape:connector-curvature="0"
   clip-rule="evenodd"
   d="m 113.21757,45.120427 c -1.0648,-2.12279 -2.11004,-4.20659 -3.17923,-6.33812 5.68879,-2.85352 11.35136,-5.69388 17.05494,-8.55481 1.05232,2.09792 2.09588,4.17837 3.17922,6.33813 -5.65719,2.83766 -11.33455,5.68544 -17.05493,8.5548 z"
   id="path4155" /><path
   inkscape:transform-center-y="-67.724634"
   inkscape:transform-center-x="-63.278731"
   style="fill:#100000;fill-opacity:1;fill-rule:evenodd;stroke:#000000;stroke-width:0.75201935;stroke-opacity:1"
   inkscape:connector-curvature="0"
   clip-rule="evenodd"
   d="m 118.5094,13.064317 c 1.07627,2.14565 2.10735,4.20122 3.17822,6.33611 -5.67602,2.84711 -11.35338,5.69489 -17.06568,8.5602 -1.03884,-2.07103 -2.09555,-4.17769 -3.17822,-6.33611 5.67803,-2.84812 11.3406,-5.68848 17.06568,-8.5602 z"
   id="path4157" /><path
   inkscape:transform-center-y="-57.786755"
   inkscape:transform-center-x="-64.866761"
   style="fill:#100000;fill-opacity:1;fill-rule:evenodd;stroke:#000000;stroke-width:0.75201935;stroke-opacity:1"
   inkscape:connector-curvature="0"
   clip-rule="evenodd"
   d="m 117.41309,24.399147 c 1.06143,2.11607 2.07869,4.14409 3.13775,6.25545 -3.88125,1.94685 -7.75175,3.88831 -11.65653,5.84696 -1.01928,-2.03205 -2.06351,-4.11384 -3.13775,-6.25545 3.86781,-1.94011 7.73696,-3.88089 11.65653,-5.84696 z"
   id="path4159" /></svg>